<?xml version="1.0" encoding="utf-8"?>
<!-- Generator: Adobe Illustrator 26.5.0, SVG Export Plug-In . SVG Version: 6.00 Build 0)  -->
<svg version="1.1" id="Layer_1" xmlns="http://www.w3.org/2000/svg" xmlns:xlink="http://www.w3.org/1999/xlink" x="0px" y="0px"
	 viewBox="0 0 32 32" style="enable-background:new 0 0 32 32;" xml:space="preserve">
<style type="text/css">
	.st0{fill:#FFFFFF;}
</style>
<path class="st0" d="M9.25,4.01h8v3.2h-8V4.01z M27,10.202v17.302C27,27.778,26.778,28,26.504,28H5.496C5.222,28,5,27.778,5,27.504
	V4.496C5,4.222,5.222,4,5.496,4H7.75v4.51h11V4h2.235c0.137,0,0.268,0.055,0.363,0.154l5.509,5.697
	C26.949,9.945,27,10.071,27,10.202z M24.25,25.001V12.999c0-0.552-0.447-0.999-0.999-0.999H8.749c-0.552,0-0.999,0.447-0.999,0.999
	v12.003C7.75,25.553,8.197,26,8.749,26h14.503C23.803,26,24.25,25.553,24.25,25.001z M16,13.5c1.871,0,3.391,1.562,3.391,3.386
	v0.861h-1.147v-0.788c0-1.213-1.005-2.248-2.244-2.248c-1.239,0-2.244,1.007-2.244,2.248v0.787h-1.147v-0.861
	C12.609,15.014,14.126,13.5,16,13.5L16,13.5z M12.089,18.99h7.822c0.338,0.528,0.529,1.137,0.529,1.776
	c0,2.043-1.965,3.735-4.439,3.735c-2.474,0-4.439-1.691-4.439-3.735C11.561,20.126,11.751,19.517,12.089,18.99L12.089,18.99z
	 M15.993,19.543c-0.517,0-0.932,0.415-0.932,0.932c0,0.387,0.231,0.722,0.567,0.864l-0.743,2.269h2.229l-0.757-2.269
	c0.336-0.142,0.581-0.477,0.581-0.864C16.939,19.958,16.51,19.543,15.993,19.543L15.993,19.543z"/>
</svg>
